<svg viewBox="0 0 24 24" fill="none" xmlns="http://www.w3.org/2000/svg">
<mask id="path-1-outside-1_5599_35003" maskUnits="userSpaceOnUse" x="2" y="1" width="20" height="23" fill="black">
<rect fill="white" x="2" y="1" width="20" height="23"/>
<path fill-rule="evenodd" clip-rule="evenodd" d="M11.7848 3C11.2187 3 10.7598 3.45892 10.7598 4.02502V11.8291H9.76253L8.00041 5.9871C7.86378 5.53412 7.40013 5.26626 6.93924 5.37404C6.43119 5.49286 6.12768 6.01775 6.27829 6.51709L8.40071 13.5536L8.587 15.023L8.57402 15.0455L5.8554 13.5444C5.36676 13.2746 4.76106 13.363 4.36754 13.7616C3.84875 14.2872 3.88378 15.1495 4.44344 15.6301L8.99929 19.5421C9.83831 20.4446 11.0377 21.0072 12.3677 21.0011L14.4048 20.9918C16.4216 20.9826 18.1359 19.5158 18.4569 17.5247L18.8602 15.023L19.3317 12.0845L19.9559 9.72462C20.1008 9.17686 19.775 8.61249 19.2282 8.46407C18.6814 8.31565 18.1206 8.63938 17.9757 9.18714L17.2769 11.8291H16.1169L16.9619 6.42491C17.0494 5.86543 16.667 5.33915 16.1079 5.24945C15.5488 5.15974 15.0246 5.54057 14.9371 6.10005L14.0413 11.8291H13.2225H12.8098V4.02502C12.8098 3.45892 12.3509 3 11.7848 3Z"/>
</mask>
<path d="M10.7598 11.8291V13.8291H12.7598V11.8291H10.7598ZM9.76253 11.8291L7.84774 12.4067L8.27679 13.8291H9.76253V11.8291ZM8.00041 5.9871L6.08562 6.56466L6.08562 6.56466L8.00041 5.9871ZM6.93924 5.37404L7.39468 7.3215H7.39468L6.93924 5.37404ZM6.27829 6.51709L8.19309 5.93953L6.27829 6.51709ZM8.40071 13.5536L10.3848 13.302L10.3638 13.1361L10.3155 12.976L8.40071 13.5536ZM8.587 15.023L10.3208 16.0199L10.6556 15.4377L10.5711 14.7714L8.587 15.023ZM8.57402 15.0455L7.60726 16.7964L9.32801 17.7465L10.3078 16.0425L8.57402 15.0455ZM5.8554 13.5444L4.88863 15.2952L4.88864 15.2952L5.8554 13.5444ZM4.36754 13.7616L5.79084 15.1667L5.79085 15.1667L4.36754 13.7616ZM4.44344 15.6301L5.74637 14.1127H5.74637L4.44344 15.6301ZM8.99929 19.5421L10.4641 18.1803L10.3875 18.098L10.3022 18.0248L8.99929 19.5421ZM12.3677 21.0011L12.3586 19.0011L12.3677 21.0011ZM14.4048 20.9918L14.3956 18.9918H14.3956L14.4048 20.9918ZM18.4569 17.5247L16.4824 17.2064V17.2064L18.4569 17.5247ZM18.8602 15.023L20.8347 15.3413L20.8349 15.3398L18.8602 15.023ZM19.3317 12.0845L17.3982 11.5731L17.3727 11.6694L17.3569 11.7677L19.3317 12.0845ZM19.9559 9.72462L21.8894 10.2361L21.8894 10.2361L19.9559 9.72462ZM19.2282 8.46407L19.7521 6.53391L19.7521 6.53391L19.2282 8.46407ZM17.9757 9.18714L19.9092 9.69858V9.69858L17.9757 9.18714ZM17.2769 11.8291V13.8291H18.8166L19.2104 12.3405L17.2769 11.8291ZM16.1169 11.8291L14.1409 11.5202L13.7799 13.8291H16.1169V11.8291ZM16.9619 6.42491L18.9379 6.73387V6.73387L16.9619 6.42491ZM14.9371 6.10005L12.9611 5.7911L12.9611 5.7911L14.9371 6.10005ZM14.0413 11.8291V13.8291H15.7529L16.0173 12.1381L14.0413 11.8291ZM12.8098 11.8291H10.8098V13.8291H12.8098V11.8291ZM12.7598 4.02502C12.7598 4.56348 12.3233 5 11.7848 5V1C10.1141 1 8.75979 2.35435 8.75979 4.02502H12.7598ZM12.7598 11.8291V4.02502H8.75979V11.8291H12.7598ZM9.76253 13.8291H10.7598V9.82911H9.76253V13.8291ZM6.08562 6.56466L7.84774 12.4067L11.6773 11.2515L9.9152 5.40954L6.08562 6.56466ZM7.39468 7.3215C6.82844 7.45392 6.25399 7.12286 6.08562 6.56466L9.9152 5.40954C9.47357 3.94538 7.97181 3.07859 6.4838 3.42659L7.39468 7.3215ZM8.19309 5.93953C8.37603 6.54606 8.0098 7.17764 7.39468 7.3215L6.4838 3.42659C4.85259 3.80808 3.87933 5.48944 4.3635 7.09464L8.19309 5.93953ZM10.3155 12.976L8.19309 5.93953L4.3635 7.09464L6.48591 14.1311L10.3155 12.976ZM10.5711 14.7714L10.3848 13.302L6.41659 13.8051L6.60289 15.2745L10.5711 14.7714ZM10.3078 16.0425L10.3208 16.0199L6.85319 14.026L6.84021 14.0486L10.3078 16.0425ZM4.88864 15.2952L7.60726 16.7964L9.54078 13.2947L6.82216 11.7936L4.88864 15.2952ZM5.79085 15.1667C5.55814 15.4024 5.1881 15.4606 4.88863 15.2952L6.82216 11.7936C5.54541 11.0886 3.96397 11.3236 2.94423 12.3566L5.79085 15.1667ZM5.74637 14.1127C6.06785 14.3888 6.08487 14.8689 5.79084 15.1667L2.94423 12.3566C1.61263 13.7055 1.69971 15.9102 3.14051 17.1474L5.74637 14.1127ZM10.3022 18.0248L5.74637 14.1127L3.14051 17.1474L7.69636 21.0595L10.3022 18.0248ZM12.3586 19.0011C11.6106 19.0045 10.9386 18.6908 10.4641 18.1803L7.53453 20.9039C8.73803 22.1984 10.4648 23.0098 12.3768 23.0011L12.3586 19.0011ZM14.3956 18.9918L12.3586 19.0011L12.3768 23.0011L14.4139 22.9918L14.3956 18.9918ZM16.4824 17.2064C16.3171 18.2318 15.4343 18.9871 14.3956 18.9918L14.4139 22.9918C17.409 22.9781 19.9547 20.7999 20.4314 17.843L16.4824 17.2064ZM16.8856 14.7046L16.4824 17.2064L20.4314 17.843L20.8347 15.3413L16.8856 14.7046ZM17.3569 11.7677L16.8854 14.7061L20.8349 15.3398L21.3064 12.4014L17.3569 11.7677ZM18.0224 9.21318L17.3982 11.5731L21.2652 12.596L21.8894 10.2361L18.0224 9.21318ZM18.7043 10.3942C18.1899 10.2546 17.8861 9.7284 18.0224 9.21318L21.8894 10.2361C22.3155 8.62532 21.36 6.97036 19.7521 6.53391L18.7043 10.3942ZM19.9092 9.69858C19.7704 10.2235 19.2283 10.5365 18.7043 10.3942L19.7521 6.53391C18.1344 6.09483 16.4709 7.05522 16.0422 8.6757L19.9092 9.69858ZM19.2104 12.3405L19.9092 9.69858L16.0422 8.6757L15.3434 11.3177L19.2104 12.3405ZM16.1169 13.8291H17.2769V9.82911H16.1169V13.8291ZM14.9859 6.11596L14.1409 11.5202L18.0929 12.1381L18.9379 6.73387L14.9859 6.11596ZM15.7911 7.22419C15.2626 7.13941 14.9032 6.64471 14.9859 6.11596L18.9379 6.73387C19.1955 5.08615 18.0714 3.5389 16.4247 3.2747L15.7911 7.22419ZM16.9131 6.40901C16.8295 6.94391 16.3256 7.30996 15.7911 7.22419L16.4247 3.2747C14.7719 3.00952 13.2197 4.13722 12.9611 5.7911L16.9131 6.40901ZM16.0173 12.1381L16.9131 6.40901L12.9611 5.7911L12.0653 11.5202L16.0173 12.1381ZM13.2225 13.8291H14.0413V9.82911H13.2225V13.8291ZM12.8098 13.8291H13.2225V9.82911H12.8098V13.8291ZM10.8098 4.02502V11.8291H14.8098V4.02502H10.8098ZM11.7848 5C11.2463 5 10.8098 4.56349 10.8098 4.02502H14.8098C14.8098 2.35435 13.4555 1 11.7848 1V5Z" fill="#E6E6E6" mask="url(#path-1-outside-1_5599_35003)"/>
</svg>
