<svg viewBox="0 0 24 24" fill="none" xmlns="http://www.w3.org/2000/svg">
<g clip-path="url(#clip0_5916_27170)">
<mask id="path-1-inside-1_5916_27170" fill="white">
<path fill-rule="evenodd" clip-rule="evenodd" d="M7.93388 23.5631L12.3545 14.052L22.4887 11.3501L2.35555 2.13571L7.93388 23.5631Z"/>
</mask>
<path d="M12.3545 14.052L11.8393 12.1195L10.9352 12.3605L10.5408 13.209L12.3545 14.052ZM7.93388 23.5631L5.99839 24.067L7.40102 29.4547L9.74755 24.406L7.93388 23.5631ZM22.4887 11.3501L23.0039 13.2826L28.3834 11.8484L23.321 9.53153L22.4887 11.3501ZM2.35555 2.13571L3.18786 0.317121L-0.640735 -1.43512L0.420061 2.63958L2.35555 2.13571ZM10.5408 13.209L6.1202 22.7201L9.74755 24.406L14.1681 14.8949L10.5408 13.209ZM12.8697 15.9845L23.0039 13.2826L21.9735 9.41761L11.8393 12.1195L12.8697 15.9845ZM23.321 9.53153L3.18786 0.317121L1.52323 3.95429L21.6564 13.1687L23.321 9.53153ZM9.86936 23.0592L4.29103 1.63183L0.420061 2.63958L5.99839 24.067L9.86936 23.0592Z" fill="#E6E6E6" mask="url(#path-1-inside-1_5916_27170)"/>
</g>
<defs>
<clipPath id="clip0_5916_27170">
<rect fill="white"/>
</clipPath>
</defs>
</svg>
