<svg viewBox="0 0 32 32" fill="none" xmlns="http://www.w3.org/2000/svg">
<path fill-rule="evenodd" clip-rule="evenodd" d="M16 25C20.9706 25 25 20.9706 25 16C25 11.0294 20.9706 7 16 7C11.0294 7 7 11.0294 7 16C7 20.9706 11.0294 25 16 25ZM16 27C22.0751 27 27 22.0751 27 16C27 9.92487 22.0751 5 16 5C9.92487 5 5 9.92487 5 16C5 22.0751 9.92487 27 16 27Z" fill="#FFFFFF"/>
<path fill-rule="evenodd" clip-rule="evenodd" d="M16 11C14.6193 11 13.5 12.1193 13.5 13.5C13.5 14.8807 14.6193 16 16 16C17.3807 16 18.5 14.8807 18.5 13.5C18.5 12.1193 17.3807 11 16 11ZM11.5 13.5C11.5 11.0147 13.5147 9 16 9C18.4853 9 20.5 11.0147 20.5 13.5C20.5 15.9853 18.4853 18 16 18C13.5147 18 11.5 15.9853 11.5 13.5Z" fill="#FFFFFF"/>
<path d="M15.9992 26C13.5787 26 11.3605 25.1411 9.63031 23.7099L9.8881 22.8506C10.3957 21.1587 11.953 20 13.7194 20H18.2791C20.0455 20 21.6028 21.1587 22.1104 22.8506L22.3682 23.7099C20.6379 25.1411 18.4198 26 15.9992 26Z" stroke="#FFFFFF" stroke-width="2"/>
</svg>
