<svg viewBox="0 0 32 32" fill="none" xmlns="http://www.w3.org/2000/svg">
<path fill-rule="evenodd" clip-rule="evenodd" d="M13.5659 4.00011C13.4154 3.99738 13.2688 4.0464 13.1517 4.13856C13.0346 4.23073 12.9545 4.36014 12.9256 4.50409L12.4577 7.672C11.7239 7.98081 11.0228 8.35858 10.3642 8.79996L7.31033 7.6C7.03942 7.6 6.71925 7.6 6.54685 7.91199L4.08401 12.0639C4.00943 12.1877 3.98331 12.3337 4.01046 12.4748C4.03762 12.6159 4.11622 12.7427 4.23178 12.8318L6.84239 14.7998C6.74389 15.5969 6.74389 16.4026 6.84239 17.1997L4.23178 19.1676C4.12111 19.2601 4.04614 19.3867 4.01927 19.5263C3.9924 19.6659 4.01524 19.8103 4.08401 19.9356L6.54685 24.0875C6.69462 24.3995 7.01479 24.3995 7.31033 24.3995L10.3642 23.1995C11.0139 23.6547 11.7166 24.0334 12.4577 24.3275L12.9256 27.4954C12.9507 27.6411 13.0297 27.7729 13.1477 27.8657C13.2657 27.9586 13.4144 28.0061 13.5659 27.9994H18.4916C18.6343 27.9933 18.7705 27.9401 18.878 27.8485C18.9854 27.7569 19.0576 27.6324 19.0827 27.4954L19.5506 24.3275C20.2739 24.0133 20.9663 23.6358 21.6194 23.1995L24.6487 24.3995C24.9689 24.3995 25.2891 24.3995 25.4615 24.0875L27.9243 19.9356C27.9931 19.8103 28.0159 19.6659 27.989 19.5263C27.9622 19.3867 27.8872 19.2601 27.7765 19.1676L25.1413 17.1997C25.1986 16.802 25.2315 16.4013 25.2398 15.9997C25.2437 15.5977 25.2108 15.1961 25.1413 14.7998L27.7519 12.8318C27.8626 12.7393 27.9375 12.6128 27.9644 12.4732C27.9913 12.3335 27.9684 12.1891 27.8997 12.0639L25.4368 7.91199C25.2891 7.6 24.9689 7.6 24.6487 7.6L21.6194 8.79996C20.9666 8.34966 20.2645 7.97135 19.526 7.672L19.0581 4.50409C19.0425 4.36739 18.9765 4.24086 18.8723 4.14812C18.768 4.05538 18.6327 4.00277 18.4916 4.00011H13.5659ZM16 19.2727C17.8075 19.2727 19.2727 17.8075 19.2727 16C19.2727 14.1925 17.8075 12.7273 16 12.7273C14.1925 12.7273 12.7273 14.1925 12.7273 16C12.7273 17.8075 14.1925 19.2727 16 19.2727Z" stroke="white" stroke-width="2"/>
</svg>
