<svg viewBox="0 0 32 32" fill="none" xmlns="http://www.w3.org/2000/svg">
<path d="M15.6025 5.39844C14.2101 5.39844 12.8314 5.67269 11.545 6.20552C10.2587 6.73834 9.08986 7.5193 8.10532 8.50383C7.12079 9.48837 6.33976 10.6572 5.80693 11.9435C5.27411 13.2299 5 14.6086 5 16.001H11.8809C11.8809 10.1492 13.5442 5.39844 15.6025 5.39844Z" stroke="white" stroke-width="2" stroke-linecap="round" stroke-linejoin="round"/>
<path d="M11.8809 16H5C5 17.3923 5.27411 18.771 5.80693 20.0574C6.33976 21.3437 7.12079 22.5126 8.10532 23.4971C9.08986 24.4816 10.2587 25.2626 11.545 25.7954C12.8314 26.3283 14.2101 26.6025 15.6025 26.6025C13.5442 26.6025 11.8809 21.8517 11.8809 16Z" stroke="white" stroke-width="2" stroke-linecap="round" stroke-linejoin="round"/>
<path d="M15.6016 5.39844C17.6718 5.39844 19.3352 10.1851 19.3352 16.001H26.1681C26.165 13.1962 25.0519 10.5066 23.072 8.51998C21.0921 6.53333 18.4063 5.41108 15.6016 5.39844Z" stroke="white" stroke-width="2" stroke-linecap="round" stroke-linejoin="round"/>
<path d="M15.6016 26.6025C18.4146 26.6025 21.1126 25.4858 23.1028 23.4978C25.0931 21.5098 26.2128 18.8131 26.216 16H19.3352C19.3352 21.8517 17.6718 26.6025 15.6016 26.6025Z" stroke="white" stroke-width="2" stroke-linecap="round" stroke-linejoin="round"/>
<path d="M11.8789 16.001H19.3341C19.3341 10.1492 17.6708 5.39844 15.6005 5.39844C13.5303 5.39844 11.8789 10.1492 11.8789 16.001Z" stroke="white" stroke-width="2" stroke-linecap="round" stroke-linejoin="round"/>
<path d="M19.3341 16H11.8789C11.8789 21.8517 13.5423 26.6025 15.6005 26.6025C17.6588 26.6025 19.3341 21.8517 19.3341 16Z" stroke="white" stroke-width="2" stroke-linecap="round" stroke-linejoin="round"/>
</svg>
