<svg viewBox="0 0 32 32" fill="none" xmlns="http://www.w3.org/2000/svg">
<path d="M16.0041 28C15.7757 27.9999 15.5517 27.9436 15.3559 27.8369L4.31076 21.827C4.21716 21.7765 4.13964 21.7047 4.0858 21.6189C4.03196 21.533 4.00365 21.4359 4.00365 21.3371C4.00365 21.2383 4.03196 21.1412 4.0858 21.0553C4.13964 20.9695 4.21716 20.8977 4.31076 20.8472L5.82152 20.0251L16.0041 25.5623L26.1805 20.0237L27.6913 20.8459C27.7849 20.8964 27.8624 20.9681 27.9163 21.054C27.9701 21.1398 27.9984 21.2369 27.9984 21.3357C27.9984 21.4345 27.9701 21.5316 27.9163 21.6175C27.8624 21.7034 27.7849 21.7751 27.6913 21.8256L16.6522 27.8424C16.4558 27.9471 16.2318 28.0016 16.0041 28ZM16.0041 22.8231L4.31076 16.4624C4.21718 16.4117 4.1397 16.3399 4.08591 16.2539C4.03211 16.1679 4.00382 16.0707 4.00382 15.9719C4.00382 15.873 4.03211 15.7758 4.08591 15.6898C4.1397 15.6039 4.21718 15.532 4.31076 15.4813L5.82152 14.6592L16.0041 20.1964L26.1805 14.6592L27.6913 15.4813C27.7849 15.532 27.8624 15.6039 27.9162 15.6898C27.97 15.7758 27.9982 15.873 27.9982 15.9719C27.9982 16.0707 27.97 16.1679 27.9162 16.2539C27.8624 16.3399 27.7849 16.4117 27.6913 16.4624L16.0041 22.8218V22.8231ZM16.0041 17.5134L4.31076 11.1513C4.21614 11.1009 4.13769 11.0289 4.08318 10.9425C4.02867 10.8561 4 10.7583 4 10.6587C4 10.5592 4.02867 10.4613 4.08318 10.3749C4.13769 10.2885 4.21614 10.2165 4.31076 10.1661L15.3559 4.16301C15.5517 4.05635 15.7757 4 16.0041 4C16.2324 4 16.4564 4.05635 16.6522 4.16301L27.6943 10.1661C27.7876 10.2169 27.8647 10.2887 27.9183 10.3745C27.9718 10.4604 28 10.5573 28 10.656C28 10.7546 27.9718 10.8516 27.9183 10.9374C27.8647 11.0232 27.7876 11.0951 27.6943 11.1458L16.0041 17.512V17.5134ZM16.0041 6.47326L8.30823 10.6621L16.0056 14.8496L23.7014 10.6621L16.0056 6.46641L16.0041 6.47326Z" fill="white"/>
</svg>
