<svg viewBox="0 0 32 32" fill="none" xmlns="http://www.w3.org/2000/svg">
<circle cx="15.5" cy="15.5" r="11.25" stroke="white" stroke-width="2.5"/>
<path d="M15.9608 9.73438C17.265 9.73438 18.3122 10.0602 19.1023 10.7117C19.9049 11.3519 20.3062 12.2378 20.3062 13.3695C20.3062 14.4897 19.9112 15.3471 19.1211 15.9415C18.331 16.5245 17.2838 16.816 15.9796 16.816L15.9044 18.1363H13.5906L13.4965 15.2213H14.343C15.4341 15.2213 16.2743 15.0899 16.8637 14.827C17.4531 14.5641 17.7479 14.0839 17.7479 13.3866C17.7479 12.8837 17.5848 12.4836 17.2588 12.1864C16.9452 11.8892 16.5126 11.7405 15.9608 11.7405C15.3839 11.7405 14.9324 11.8834 14.6064 12.1692C14.2929 12.455 14.1361 12.8494 14.1361 13.3523H11.653C11.6405 12.655 11.8035 12.032 12.1421 11.4833C12.4807 10.9346 12.9761 10.506 13.6282 10.1973C14.2929 9.8887 15.0704 9.73438 15.9608 9.73438ZM14.7381 22.2344C14.2615 22.2344 13.8665 22.1029 13.553 21.84C13.252 21.5656 13.1015 21.2284 13.1015 20.8283C13.1015 20.4282 13.252 20.0967 13.553 19.8338C13.8665 19.5595 14.2615 19.4223 14.7381 19.4223C15.2021 19.4223 15.5846 19.5595 15.8855 19.8338C16.1865 20.0967 16.337 20.4282 16.337 20.8283C16.337 21.2284 16.1865 21.5656 15.8855 21.84C15.5846 22.1029 15.2021 22.2344 14.7381 22.2344Z" fill="white"/>
</svg>
