<svg viewBox="0 0 24 24" fill="none" xmlns="http://www.w3.org/2000/svg">
<path fill-rule="evenodd" clip-rule="evenodd" d="M7.81106 2.01306L11.915 7.87414L16.0281 2L16.192 2.11472C17.0968 2.74827 17.3167 3.99536 16.6831 4.90017L13.2579 9.79193L16.9124 15.0112C16.9415 15.0105 16.9707 15.0101 17 15.0101C18.933 15.0101 20.5 16.5771 20.5 18.5101C20.5 20.4431 18.933 22.0101 17 22.0101C15.067 22.0101 13.5 20.4431 13.5 18.5101C13.5 17.4554 13.9666 16.5096 14.7045 15.8679L7.07416 4.97059C6.44061 4.06578 6.6605 2.81869 7.56531 2.18514L7.81106 2.01306ZM7 20.0101C7.82843 20.0101 8.5 19.3385 8.5 18.5101C8.5 17.6817 7.82843 17.0101 7 17.0101C6.17157 17.0101 5.5 17.6817 5.5 18.5101C5.5 19.3385 6.17157 20.0101 7 20.0101ZM7 22.0101C8.933 22.0101 10.5 20.4431 10.5 18.5101C10.5 17.2443 9.82803 16.1354 8.82136 15.5208L10.2469 13.3337L8.99768 11.5112L6.5561 15.038C4.83269 15.2561 3.5 16.7275 3.5 18.5101C3.5 20.4431 5.067 22.0101 7 22.0101ZM17 20.0101C17.8284 20.0101 18.5 19.3385 18.5 18.5101C18.5 17.6817 17.8284 17.0101 17 17.0101C16.1716 17.0101 15.5 17.6817 15.5 18.5101C15.5 19.3385 16.1716 20.0101 17 20.0101Z" fill="#5D5D5D"/>
</svg>
