<svg viewBox="0 0 24 24" fill="none" xmlns="http://www.w3.org/2000/svg">
<path d="M19 22H5C4.73478 22 4.48043 21.8946 4.29289 21.7071C4.10536 21.5196 4 21.2652 4 21V8H2V6H7V3C7 2.86868 7.02587 2.73864 7.07612 2.61732C7.12638 2.49599 7.20003 2.38575 7.29289 2.29289C7.38575 2.20003 7.49599 2.12638 7.61732 2.07612C7.73864 2.02587 7.86868 2 8 2H16C16.2652 2 16.5196 2.10536 16.7071 2.29289C16.8946 2.48043 17 2.73478 17 3V6H22V8H20V21C20 21.2652 19.8946 21.5196 19.7071 21.7071C19.5196 21.8946 19.2652 22 19 22ZM6 8V20H18V8H6ZM9 4V6H15V4H9ZM15 17H13V11H15V17ZM11 17H9V11H11V17Z" fill="#5D5D5D"/>
</svg>
