<svg width="16" height="16" viewBox="0 0 16 16" fill="none" xmlns="http://www.w3.org/2000/svg">
<path d="M0.5 8C0.5 6.51664 0.939867 5.0666 1.76398 3.83323C2.58809 2.59986 3.75943 1.63856 5.12987 1.07091C6.50032 0.50325 8.00832 0.354725 9.46318 0.644114C10.918 0.933503 12.2544 1.64781 13.3033 2.6967C14.3522 3.7456 15.0665 5.08197 15.3559 6.53683C15.6453 7.99168 15.4968 9.49968 14.9291 10.8701C14.3614 12.2406 13.4001 13.4119 12.1668 14.236C10.9334 15.0601 9.48336 15.5 8 15.5C6.01088 15.5 4.10322 14.7098 2.6967 13.3033C1.29018 11.8968 0.5 9.98913 0.5 8Z" stroke="#F06548" stroke-miterlimit="10"/>
<path d="M7.14844 4H8.84844L7.99844 8.35L7.14844 4Z" fill="#F06548" stroke="#F06548" stroke-miterlimit="10" stroke-linejoin="round"/>
<path d="M7 11.0965C7.01396 10.8448 7.12697 10.6088 7.31434 10.4402C7.50172 10.2716 7.74822 10.184 8 10.1965C8.25178 10.184 8.49828 10.2716 8.68566 10.4402C8.87303 10.6088 8.98604 10.8448 9 11.0965C8.98604 11.3482 8.87303 11.5841 8.68566 11.7528C8.49828 11.9214 8.25178 12.009 8 11.9965C7.74822 12.009 7.50172 11.9214 7.31434 11.7528C7.12697 11.5841 7.01396 11.3482 7 11.0965Z" fill="#F06548"/>
</svg>
