<svg width="14" height="13" viewBox="0 0 14 13" fill="none" xmlns="http://www.w3.org/2000/svg">
<path fill-rule="evenodd" clip-rule="evenodd" d="M0.707107 0L0 0.707107L1.68071 2.38782C0.822008 3.35328 0.237549 4.53987 0 5.82355C0.301466 7.45952 1.16689 8.93804 2.44573 10.0019C3.72457 11.0658 5.33589 11.6477 6.9994 11.6464C8.11368 11.6475 9.20458 11.3869 10.1879 10.895L12.1967 12.9038L12.9038 12.1967L0.707107 0ZM8.14412 8.85123L7.05656 7.76366C7.03753 7.76423 7.01848 7.76451 6.9994 7.76451C6.57218 7.76441 6.15693 7.62335 5.81804 7.36321C5.47915 7.10307 5.23556 6.73839 5.12503 6.32572C5.07592 6.14237 5.0543 5.95411 5.05977 5.76688L3.97292 4.68003C3.75881 5.24609 3.70752 5.86158 3.82593 6.45645C3.95088 7.08415 4.25917 7.6607 4.71182 8.11318C5.16446 8.56566 5.74113 8.87373 6.36888 8.99845C6.9634 9.11657 7.57845 9.06519 8.14412 8.85123ZM5.91872 4.21161L8.61175 6.90465C8.63609 6.86844 8.65925 6.83135 8.68117 6.79344C8.89465 6.42338 8.98007 5.99322 8.92419 5.56967C8.86831 5.14612 8.67425 4.75284 8.37209 4.45081C8.06994 4.14878 7.67658 3.95488 7.25301 3.89917C6.82944 3.84346 6.39932 3.92905 6.02934 4.14268C5.99161 4.16447 5.95472 4.18746 5.91872 4.21161ZM9.6904 7.62156C9.64232 7.69356 9.5915 7.76341 9.5381 7.83099L11.6382 9.93104C12.8709 8.87286 13.7052 7.4235 14 5.82355C13.6973 4.188 12.8315 2.71006 11.5528 1.64629C10.2741 0.582514 8.66333 7.55787e-05 7 7.55787e-05C5.55316 7.55787e-05 4.14606 0.440767 2.96271 1.25561L4.99316 3.28606C5.06043 3.2329 5.12995 3.1823 5.2016 3.13442C5.73374 2.77882 6.35939 2.58902 6.9994 2.58902L7.0006 2.58782C7.85827 2.58909 8.68043 2.93044 9.28679 3.53702C9.89314 4.14359 10.2342 4.96588 10.2351 5.82355C10.2354 6.46357 10.0458 7.08928 9.6904 7.62156Z" fill="#878A99"/>
</svg>
