<svg viewBox="0 0 32 32" fill="none" xmlns="http://www.w3.org/2000/svg">
<path fill-rule="evenodd" clip-rule="evenodd" d="M12.8773 20.3636H13.9558C14.4359 22.1235 14.9991 24.1443 15.6466 26.4634C13.6116 27.6967 11.2967 28.3927 8.919 28.4862C8.03741 28.5007 7.16119 28.346 6.33788 28.0305V28.0301C5.75565 27.7472 5.21235 27.3905 4.72148 26.9686C5.27724 26.2098 5.83302 25.4502 6.33788 24.7431V24.7419C6.90059 23.9748 7.44456 23.2062 7.98137 22.4476L7.98148 22.4475L7.98159 22.4473C8.36349 21.9077 8.74176 21.3731 9.12057 20.8479C9.79969 21.0211 10.5092 21.038 11.1958 20.8973C11.7733 20.7748 12.3364 20.5958 12.8773 20.3636ZM8.68359 11.2171V14.5772C8.64371 14.644 8.60427 14.711 8.56529 14.7783C7.80688 15.0818 7.04926 15.3853 6.3387 15.6896C5.97668 15.8464 5.60557 15.9813 5.22736 16.0936C5.58265 15.4842 5.93792 14.8795 6.3387 14.2732C6.7832 13.5825 7.27366 12.9436 7.76468 12.304L7.8069 12.249C8.09094 11.8979 8.38326 11.5539 8.68359 11.2171ZM19.5586 7.04185L19.5585 8.04005C19.8607 8.19589 20.1276 8.41697 20.3384 8.69032C20.6824 9.13624 20.8538 9.69129 20.8213 10.2535C23.1486 9.44463 25.7786 8.58478 28.7113 7.67396C28.6054 6.94314 28.3427 6.24386 27.9414 5.624C27.54 5.00415 27.0094 4.47838 26.3859 4.08271C25.2344 3.42634 23.9143 3.12609 22.5923 3.21996C21.5799 4.48374 20.5698 5.747 19.5586 7.04185ZM19.5591 3.80636L19.5589 4.98586C19.9751 4.46813 20.391 3.95439 20.8065 3.44687C20.3865 3.55295 19.9705 3.67286 19.5591 3.80636ZM7.17854 21.0125C6.90307 21.3794 6.62826 21.7454 6.3387 22.1114V22.1075C6.06622 22.4773 5.79863 22.8468 5.53119 23.2162L5.53117 23.2162C4.95568 24.011 4.38082 24.8049 3.75916 25.5984C3.27105 24.4508 3.09753 23.1939 3.25644 21.9569C3.41182 20.5424 3.78733 19.1608 4.36935 17.8621C5.02502 17.6606 5.68225 17.408 6.3387 17.1555C6.79594 17.0033 7.25158 16.8512 7.75745 16.6488C7.54151 17.1855 7.44768 17.7635 7.48268 18.341C7.51767 18.9184 7.68066 19.4809 7.95984 19.9876C7.69063 20.3304 7.43433 20.6718 7.17859 21.0124L7.17858 21.0124L7.17854 21.0125ZM25.6134 17.3563C27.2081 15.2363 28.2977 12.7802 28.7992 10.1753C26.2442 10.8452 23.8959 11.5168 21.7557 12.1289L21.7556 12.1289C21.3127 12.2556 20.8787 12.3797 20.4536 12.5007C19.5956 14.6122 18.2413 16.4857 16.5055 17.9625C16.6909 18.425 16.8828 18.9074 17.0832 19.4112C17.6515 20.8398 18.2878 22.4393 19.0364 24.2369C21.5781 22.3048 23.7979 19.9825 25.6134 17.3563Z" fill="currentColor"/>
<path d="M17.9601 7.36085H13.6208V9.60884H17.8073V12.3775H13.6208V18.7605H10.2852V4H17.9606L17.9601 7.36085Z" fill="currentColor"/>
<path fill-rule="evenodd" clip-rule="evenodd" d="M13.6208 12.3775H17.8073V9.60884H13.6208V7.36085H17.9601L17.9606 4H10.2852V18.7605H13.6208V12.3775Z" fill="currentColor"/>
<path d="M17.9601 7.36085H13.6208V9.60884H17.8073V12.3775H13.6208V18.7605H10.2852V4H17.9606L17.9601 7.36085Z" fill="currentColor"/>
<defs>
<linearGradient id="paint0_linear_1668_77373" x1="9.69474" y1="12.2877" x2="17.9606" y2="12.2877" gradientUnits="userSpaceOnUse">
<stop stop-color="#176AB7"/>
<stop offset="1" stop-color="#0C568B"/>
</linearGradient>
</defs>
</svg>
