<svg viewBox="0 0 32 32" fill="none" xmlns="http://www.w3.org/2000/svg">
<path d="M16.4559 5.72335L16.3686 4.72717L16.4559 5.72335ZM26.8424 16.6042L25.8513 16.4709L26.8424 16.6042ZM25.6605 15.6917C23.4192 17.933 19.7854 17.933 17.5441 15.6917L16.1299 17.1059C19.1523 20.1282 24.0524 20.1283 27.0747 17.1059L25.6605 15.6917ZM25.8513 16.4709C25.6081 18.2791 24.7924 20.0236 23.4018 21.4142L24.816 22.8284C26.5272 21.1172 27.5338 18.965 27.8334 16.7375L25.8513 16.4709ZM23.4018 21.4142C20.0326 24.7833 14.5701 24.7833 11.2009 21.4142L9.78673 22.8284C13.937 26.9786 20.6658 26.9786 24.816 22.8284L23.4018 21.4142ZM11.2009 21.4142C7.83177 18.045 7.83176 12.5824 11.2009 9.21327L9.78673 7.79905C5.6365 11.9493 5.6365 18.6781 9.78673 22.8284L11.2009 21.4142ZM11.2009 9.21327C12.6932 7.72097 14.5937 6.89038 16.5432 6.71953L16.3686 4.72717C13.9683 4.93752 11.6236 5.96214 9.78673 7.79905L11.2009 9.21327ZM17.5441 15.6917C15.3029 13.4505 15.3029 9.81663 17.5441 7.57537L16.1299 6.16115C13.1076 9.18347 13.1076 14.0836 16.1299 17.1059L17.5441 15.6917ZM16.5432 6.71953C16.4423 6.72838 16.3146 6.69823 16.2078 6.61613C16.1131 6.54342 16.0752 6.46208 16.0614 6.41729C16.0394 6.3457 16.0439 6.24715 16.1299 6.16115L17.5441 7.57537C18.0405 7.07904 18.1435 6.3827 17.9728 5.82858C17.7927 5.24364 17.2304 4.65165 16.3686 4.72717L16.5432 6.71953ZM27.0747 17.1059C26.8453 17.3354 26.5277 17.3559 26.2981 17.2592C26.052 17.1556 25.7987 16.8616 25.8513 16.4709L27.8334 16.7375C27.9203 16.0916 27.5207 15.6039 27.0741 15.4159C26.644 15.2349 26.0719 15.2803 25.6605 15.6917L27.0747 17.1059Z" fill="#495057"/>
</svg>
