<svg viewBox="0 0 24 24" fill="none" xmlns="http://www.w3.org/2000/svg">
<g clip-path="url(#clip0_2884_111131)">
<mask id="path-1-inside-1_2884_111131" fill="white">
<path fill-rule="evenodd" clip-rule="evenodd" d="M7.93778 23.5631L12.3584 14.052L22.4926 11.3501L2.35945 2.13571L7.93778 23.5631Z"/>
</mask>
<path d="M12.3584 14.052L11.8432 12.1195L10.9391 12.3605L10.5447 13.209L12.3584 14.052ZM7.93778 23.5631L6.0023 24.067L7.40493 29.4547L9.75146 24.406L7.93778 23.5631ZM22.4926 11.3501L23.0078 13.2826L28.3873 11.8484L23.3249 9.53153L22.4926 11.3501ZM2.35945 2.13571L3.19177 0.317121L-0.636829 -1.43512L0.423967 2.63958L2.35945 2.13571ZM10.5447 13.209L6.12411 22.7201L9.75146 24.406L14.172 14.8949L10.5447 13.209ZM12.8736 15.9845L23.0078 13.2826L21.9774 9.41761L11.8432 12.1195L12.8736 15.9845ZM23.3249 9.53153L3.19177 0.317121L1.52714 3.95429L21.6603 13.1687L23.3249 9.53153ZM9.87327 23.0592L4.29494 1.63183L0.423967 2.63958L6.0023 24.067L9.87327 23.0592Z" fill="#888B9A" mask="url(#path-1-inside-1_2884_111131)"/>
</g>
<defs>
<clipPath id="clip0_2884_111131">
<rect width="24" height="24" fill="white"/>
</clipPath>
</defs>
</svg>
