<svg viewBox="0 0 20 20" fill="none" xmlns="http://www.w3.org/2000/svg">
<path d="M9.17133 18.2939C7.55689 18.1334 6.02453 17.5047 4.76262 16.485C3.50071 15.4653 2.56425 14.0991 2.06835 12.5544C1.57245 11.0096 1.53872 9.35365 1.97132 7.78999C2.40392 6.22633 3.28398 4.82315 4.50333 3.75294L2.50333 3.75294L2.50333 2.08594L7.50333 2.08594L7.50333 7.08594H5.83733V4.81094C4.81518 5.62826 4.05674 6.72885 3.65692 7.97503C3.25709 9.2212 3.23364 10.5576 3.58948 11.817C3.94533 13.0765 4.66467 14.203 5.65751 15.0557C6.65035 15.9084 7.8726 16.4494 9.17133 16.6109V18.2939ZM17.5053 17.9189H12.5053L12.5053 12.9189H14.1713V15.1929C15.1939 14.3759 15.9528 13.2753 16.3529 12.029C16.753 10.7827 16.7766 9.44604 16.4207 8.1864C16.0648 6.92676 15.3452 5.8001 14.3521 4.94745C13.3589 4.09481 12.1363 3.55407 10.8373 3.39294V1.71094C12.4517 1.87161 13.9839 2.50047 15.2457 3.52022C16.5075 4.53997 17.4438 5.90617 17.9396 7.45089C18.4354 8.99561 18.469 10.6515 18.0364 12.2151C17.6037 13.7787 16.7236 15.1818 15.5043 16.2519H17.5043V17.9179L17.5053 17.9189Z" fill="#9499AD"/>
</svg>
