<svg viewBox="0 0 16 16" fill="none" xmlns="http://www.w3.org/2000/svg">
<path d="M13.8843 15L10.1655 11.2812V10.6931L9.96716 10.4947C9.01912 11.3064 7.79357 11.7194 6.54765 11.647C5.30172 11.5746 4.13223 11.0226 3.28452 10.1066C2.43681 9.19066 1.97677 7.982 2.0009 6.73421C2.02504 5.48641 2.53147 4.29645 3.41396 3.41396C4.29645 2.53147 5.48641 2.02504 6.73421 2.0009C7.982 1.97677 9.19066 2.43681 10.1066 3.28452C11.0226 4.13223 11.5746 5.30172 11.647 6.54765C11.7194 7.79357 11.3064 9.01912 10.4947 9.96716L10.6931 10.1655H11.2812L15 13.8843L13.8843 14.999V15ZM6.81854 3.47158C6.15657 3.47158 5.50947 3.66787 4.95907 4.03564C4.40866 4.40341 3.97967 4.92613 3.72635 5.53771C3.47302 6.14929 3.40674 6.82225 3.53589 7.4715C3.66503 8.12074 3.9838 8.71712 4.45188 9.1852C4.91996 9.65328 5.51633 9.97205 6.16558 10.1012C6.81483 10.2303 7.48779 10.1641 8.09936 9.91073C8.71094 9.6574 9.23367 9.22842 9.60144 8.67801C9.9692 8.1276 10.1655 7.4805 10.1655 6.81854C10.1644 5.93119 9.81149 5.08049 9.18404 4.45304C8.55659 3.82559 7.70588 3.47263 6.81854 3.47158Z" fill="#9599AD"/>
</svg>
