<svg viewBox="0 0 24 24" fill="none" xmlns="http://www.w3.org/2000/svg">
<path fill-rule="evenodd" clip-rule="evenodd" d="M9 7.99844H3L3 18.9984H21V7.99844H15V5.89844L9 5.89844V7.99844ZM21 5.99844C22.1046 5.99844 23 6.89387 23 7.99844V18.9984C23 20.103 22.1046 20.9984 21 20.9984H3C1.89543 20.9984 1 20.103 1 18.9984V7.99844C1 6.89387 1.89543 5.99844 3 5.99844H7V5.89844C7 4.79387 7.89543 3.89844 9 3.89844H15C16.1046 3.89844 17 4.79387 17 5.89844V5.99844H21Z" fill="#888B9A"/>
<path fill-rule="evenodd" clip-rule="evenodd" d="M12 15.5C13.1046 15.5 14 14.6046 14 13.5C14 12.3954 13.1046 11.5 12 11.5C10.8954 11.5 10 12.3954 10 13.5C10 14.6046 10.8954 15.5 12 15.5ZM12 17.5C14.2091 17.5 16 15.7091 16 13.5C16 11.2909 14.2091 9.5 12 9.5C9.79086 9.5 8 11.2909 8 13.5C8 15.7091 9.79086 17.5 12 17.5Z" fill="#888B9A"/>
<path d="M19 11C19 11.5523 18.5523 12 18 12C17.4477 12 17 11.5523 17 11C17 10.4477 17.4477 10 18 10C18.5523 10 19 10.4477 19 11Z" fill="#888B9A"/>
</svg>
