<svg viewBox="0 0 32 32" fill="none" xmlns="http://www.w3.org/2000/svg">
<path d="M21 16C21 18.7614 18.7614 21 16 21V23C19.866 23 23 19.866 23 16H21ZM16 21C13.2386 21 11 18.7614 11 16H9C9 19.866 12.134 23 16 23V21ZM11 16C11 13.2386 13.2386 11 16 11V9C12.134 9 9 12.134 9 16H11ZM16 11C18.7614 11 21 13.2386 21 16H23C23 12.134 19.866 9 16 9V11Z" fill="white"/>
<path d="M15 5C15 4.44772 15.4477 4 16 4C16.5523 4 17 4.44772 17 5V7H15V5Z" fill="white"/>
<path d="M17 27C17 27.5523 16.5523 28 16 28C15.4477 28 15 27.5523 15 27L15 25L17 25L17 27Z" fill="white"/>
<path d="M27 15C27.5523 15 28 15.4477 28 16C28 16.5523 27.5523 17 27 17L25 17L25 15L27 15Z" fill="white"/>
<path d="M5 17C4.44772 17 4 16.5523 4 16C4 15.4477 4.44772 15 5 15L7 15L7 17L5 17Z" fill="white"/>
<path d="M7.51375 8.92586C7.12322 8.53533 7.12322 7.90217 7.51375 7.51164C7.90427 7.12112 8.53744 7.12112 8.92796 7.51164L10.3422 8.92586L8.92796 10.3401L7.51375 8.92586Z" fill="white"/>
<path d="M24.4863 23.0741C24.8768 23.4647 24.8768 24.0978 24.4863 24.4884C24.0957 24.8789 23.4626 24.8789 23.072 24.4884L21.6578 23.0741L23.072 21.6599L24.4863 23.0741Z" fill="white"/>
<path d="M23.0702 7.51179C23.4608 7.12127 24.0939 7.12127 24.4845 7.51179C24.875 7.90232 24.875 8.53548 24.4845 8.92601L23.0702 10.3402L21.656 8.92601L23.0702 7.51179Z" fill="white"/>
<path d="M8.92976 24.4882C8.53924 24.8787 7.90607 24.8787 7.51555 24.4882C7.12503 24.0977 7.12503 23.4645 7.51555 23.074L8.92976 21.6598L10.344 23.074L8.92976 24.4882Z" fill="white"/>
</svg>
