<svg viewBox="0 0 20 20" fill="none" xmlns="http://www.w3.org/2000/svg">
<path fill-rule="evenodd" clip-rule="evenodd" d="M2 0C0.89543 0 0 0.895432 0 2V18C0 19.1046 0.89543 20 2 20H8C8.55229 20 9 19.5523 9 19C9 18.4477 8.55229 18 8 18H2V2L18 2V8C18 8.55229 18.4477 9 19 9C19.5523 9 20 8.55229 20 8V2C20 0.89543 19.1046 0 18 0H2ZM18.7005 18.7136C18.6062 18.8063 18.498 18.8764 18.3828 18.9241C18.2657 18.9727 18.1375 18.9996 18.003 19L18 19H17.9993H12C11.4477 19 11 18.5523 11 18C11 17.4477 11.4477 17 12 17H15.5858L10.2929 11.7071C9.90237 11.3166 9.90237 10.6834 10.2929 10.2929C10.6834 9.90237 11.3166 9.90237 11.7071 10.2929L17 15.5858L17 12C17 11.4477 17.4477 11 18 11C18.5523 11 19 11.4477 19 12L19 17.9993V18L19 18.003C18.9992 18.2746 18.8901 18.5208 18.7136 18.7006L18.7005 18.7136Z" fill="black"/>
</svg>
