<svg width="14" height="12" viewBox="0 0 14 12" fill="none" xmlns="http://www.w3.org/2000/svg">
<path d="M6.9994 11.6464C5.33589 11.6476 3.72457 11.0657 2.44573 10.0018C1.16689 8.93797 0.301466 7.45945 0 5.82348C0.302664 4.18792 1.16849 2.70998 2.44717 1.64621C3.72586 0.582438 5.33668 0 7 0C8.66333 0 10.2741 0.582438 11.5528 1.64621C12.8315 2.70998 13.6973 4.18792 14 5.82348C13.6985 7.45965 12.8329 8.93833 11.5538 10.0022C10.2747 11.0661 8.66312 11.6479 6.9994 11.6464ZM6.9994 2.58894C6.35939 2.58894 5.73374 2.77875 5.2016 3.13435C4.66946 3.48994 4.25473 3.99537 4.00986 4.58669C3.76499 5.17801 3.70099 5.82867 3.82593 6.45637C3.95088 7.08408 4.25917 7.66063 4.71182 8.1131C5.16446 8.56558 5.74113 8.87366 6.36888 8.99838C6.99662 9.12309 7.64726 9.05884 8.23849 8.81376C8.82972 8.56867 9.33499 8.15375 9.6904 7.62148C10.0458 7.08921 10.2354 6.4635 10.2351 5.82348C10.2342 4.96581 9.89314 4.14352 9.28679 3.53694C8.68043 2.93036 7.85827 2.58901 7.0006 2.58775L6.9994 2.58894ZM6.9994 7.76444C6.57218 7.76433 6.15693 7.62327 5.81804 7.36313C5.47915 7.10299 5.23556 6.73831 5.12503 6.32564C5.0145 5.91296 5.04321 5.47535 5.20671 5.08066C5.37021 4.68596 5.65937 4.35623 6.02934 4.14261C6.39932 3.92898 6.82944 3.84338 7.25301 3.89909C7.67658 3.9548 8.06994 4.14871 8.37209 4.45074C8.67425 4.75277 8.86831 5.14605 8.92419 5.5696C8.98007 5.99315 8.89465 6.4233 8.68117 6.79336C8.51044 7.08859 8.26507 7.33373 7.96967 7.50417C7.67428 7.67462 7.34045 7.76437 6.9994 7.76444Z" fill="#878A99"/>
</svg>
