<svg width="32" height="32" viewBox="0 0 32 32" fill="none" xmlns="http://www.w3.org/2000/svg">
<path d="M21.0002 20.9995V18.0005H13.9951V14.0003H21.0002V10.9998L26 15.9997L21.0002 20.9995ZM18.9994 6C19.5296 6 20.0382 6.21065 20.4131 6.5856C20.7881 6.96055 20.9987 7.46909 20.9987 7.99935V9.9987H18.9994V7.99935H9.99935V24H18.9994V22.0006H20.9987V24C20.9987 24.5303 20.7881 25.0388 20.4131 25.4138C20.0382 25.7887 19.5296 25.9994 18.9994 25.9994H9.99935C9.46909 25.9994 8.96055 25.7887 8.5856 25.4138C8.21065 25.0388 8 24.5303 8 24V7.99935C8 7.46909 8.21065 6.96055 8.5856 6.5856C8.96055 6.21065 9.46909 6 9.99935 6H18.9994Z" fill="#495057"/>
</svg>
